<svg width="50" height="55" viewBox="0 0 50 55" fill="none" xmlns="http://www.w3.org/2000/svg">
<path fill-rule="evenodd" clip-rule="evenodd" d="M45.3906 16.7949L43.7565 18.4289C40.2161 15.343 35.6765 13.617 30.9565 13.617C27.7787 13.617 24.6025 14.434 21.8791 15.8859L28.7778 8.98722C29.3225 9.34977 29.9574 9.5319 30.594 9.5319C31.5012 9.5319 32.4102 9.16935 33.1353 8.44254C34.5872 6.99063 34.5872 4.71999 33.1353 3.26807C32.4085 2.54126 31.5012 2.17871 30.594 2.17871C29.6868 2.17871 28.7778 2.54126 28.0527 3.26807C26.8731 4.53956 26.691 6.35403 27.508 7.71573L18.7931 16.4306L17.1591 14.7966L12.7114 19.2442L14.3455 20.8783L5.44846 29.7753C4.90378 29.4128 4.26888 29.2306 3.63229 29.2306C2.72505 29.2306 1.81612 29.5932 1.09101 30.32C-0.360904 31.7719 -0.360904 34.0425 1.09101 35.4945C1.81782 36.1294 2.72505 36.4936 3.63229 36.4936C4.53952 36.4936 5.44846 36.1311 6.17356 35.4042C7.35314 34.2247 7.53527 32.4085 6.71825 30.9566L13.617 24.0579C9.98633 31.0485 10.8034 39.7634 16.1582 45.9353L14.5242 47.6596L19.0638 52.1072L23.5114 47.6596L19.0638 43.2119L17.5199 44.7557C12.2553 38.5821 11.9829 29.6868 16.4306 23.1506L17.1574 23.8774L21.697 19.4298L20.8799 18.703C23.7855 16.6145 27.3259 15.5251 30.9565 15.5251C35.2238 15.5251 39.217 17.0689 42.4851 19.7923L40.851 21.3362L45.3906 25.7838L49.8382 21.3362L45.3906 16.7966V16.7949ZM20.9702 47.6596L19.0638 49.5659L17.1574 47.6596L19.0638 45.7532L20.9702 47.6596ZM29.3225 4.62977C29.6851 4.26722 30.1395 4.08509 30.594 4.08509C31.0485 4.08509 31.5012 4.26722 31.8655 4.62977C32.5923 5.35658 32.5923 6.44595 31.8655 7.17105C31.5029 7.5336 31.0485 7.71573 30.594 7.71573C30.1395 7.71573 29.6868 7.5336 29.3225 7.17105C28.5957 6.53616 28.5957 5.35488 29.3225 4.62977ZM4.90208 34.1328C4.53952 34.4953 4.08505 34.6774 3.63059 34.6774C3.17612 34.6774 2.72335 34.4953 2.3591 34.1328C1.99654 33.8604 1.81442 33.4059 1.81442 32.8613C1.81442 32.4068 1.99654 31.954 2.3591 31.5898C2.72165 31.2255 3.17612 31.0451 3.63059 31.0451C4.08505 31.0451 4.53782 31.2272 4.90208 31.5898C5.62888 32.3166 5.62888 33.4962 4.90208 34.1311V34.1328ZM17.0672 21.3328L15.1608 19.4264L17.0672 17.52L18.9736 19.4264L17.0672 21.3328ZM45.3906 23.2391L43.4842 21.3328L45.3906 19.4264L47.297 21.3328L45.3906 23.2391Z" fill="#333333"/>
</svg>
